<svg width="354" height="45" viewBox="0 0 354 45" fill="none" xmlns="http://www.w3.org/2000/svg">
<g clip-path="url(#clip0_668_370)">
<path d="M8.0212 11.5985H9.09907C9.51814 11.5985 9.8168 11.2976 9.8168 10.8771V3.90836C9.8168 1.50618 8.20128 0.00380707 5.80655 0.00380707H4.01098C1.61663 0.00380707 0 1.50618 0 3.90836V36.9507C0 39.3529 1.49694 40.8552 3.89054 40.8552H5.92623C8.26055 40.8552 9.8168 39.3529 9.8168 36.9507V29.9217C9.8168 29.5008 9.51814 29.2003 9.09907 29.2003H8.0212C7.60213 29.2003 7.30235 29.5008 7.30235 29.9217V36.8298C7.30235 37.9112 6.76475 38.4522 5.86582 38.4522H3.95095C3.05316 38.4522 2.51442 37.9112 2.51442 36.8298V4.02852C2.51442 2.94784 3.05316 2.40716 3.95095 2.40716H5.86582C6.76475 2.40716 7.30235 2.94784 7.30235 4.02852V10.8771C7.30235 11.2976 7.60213 11.5985 8.0212 11.5985ZM15.3844 40.8552H16.4607C16.8802 40.8552 17.1795 40.5548 17.1795 40.1338V21.6314H22.208V40.1338C22.208 40.5548 22.5066 40.8552 22.9261 40.8552H24.0035C24.423 40.8552 24.7224 40.5548 24.7224 40.1338V3.90836C24.7224 1.50618 23.1654 0.00380707 20.7715 0.00380707H18.556C16.1625 0.00380707 14.6655 1.50618 14.6655 3.90836V40.1338C14.6655 40.5548 14.9649 40.8552 15.3844 40.8552ZM17.1795 19.228V4.02852C17.1795 2.94784 17.7187 2.40716 18.616 2.40716H20.7114C21.6692 2.40716 22.208 2.94784 22.208 4.02852V19.228H17.1795ZM30.1088 0.725269V40.1338C30.1088 40.5548 30.4085 40.8552 30.8275 40.8552H31.9054C32.3234 40.8552 32.6231 40.5548 32.6231 40.1338V22.532H35.9157C38.3693 22.532 39.9255 21.03 39.9255 18.5672V4.02852C39.9255 1.50618 38.4297 0.00380707 35.9157 0.00380707H30.8275C30.4085 0.00380707 30.1088 0.304651 30.1088 0.725269ZM32.6231 20.1893V2.34654H35.9157C36.813 2.34654 37.4122 2.94784 37.4122 4.02852V18.5078C37.4122 19.5884 36.813 20.1893 35.9157 20.1893H32.6231ZM44.8346 40.8552H45.9121C46.3316 40.8552 46.6302 40.5548 46.6302 40.1338V21.6314H51.6586V40.1338C51.6586 40.5548 51.958 40.8552 52.3775 40.8552H53.4538C53.8733 40.8552 54.1727 40.5548 54.1727 40.1338V3.90836C54.1727 1.50618 52.6165 0.00380707 50.2222 0.00380707H48.0071C45.6128 0.00380707 44.1158 1.50618 44.1158 3.90836V40.1338C44.1158 40.5548 44.4152 40.8552 44.8346 40.8552ZM46.6302 19.228V4.02852C46.6302 2.94784 47.169 2.40716 48.0667 2.40716H50.1617C51.1195 2.40716 51.6586 2.94784 51.6586 4.02852V19.228H46.6302ZM68.5388 0.00380707H67.7011C67.2216 0.00380707 66.9826 0.304651 66.9826 0.725269V29.6208L62.314 0.604328C62.1932 0.184588 61.8945 0.00380707 61.4755 0.00380707H60.2778C59.8588 0.00380707 59.5601 0.304651 59.5601 0.725269V40.1338C59.5601 40.5548 59.8588 40.8552 60.2778 40.8552H61.1757C61.5951 40.8552 61.8341 40.5548 61.8341 40.1338V9.37591L66.8629 40.2539C66.9222 40.615 67.2216 40.8552 67.641 40.8552H68.5388C69.0183 40.8552 69.2573 40.5548 69.2573 40.1338V0.725269C69.2573 0.304651 69.0183 0.00380707 68.5388 0.00380707ZM83.6234 0.00380707H82.7856C82.3062 0.00380707 82.0672 0.304651 82.0672 0.725269V29.6208L77.3985 0.604328C77.2788 0.184588 76.979 0.00380707 76.56 0.00380707H75.3624C74.9434 0.00380707 74.6447 0.304651 74.6447 0.725269V40.1338C74.6447 40.5548 74.9434 40.8552 75.3624 40.8552H76.2603C76.6797 40.8552 76.9186 40.5548 76.9186 40.1338V9.37591L81.9475 40.2539C82.0075 40.615 82.3062 40.8552 82.7256 40.8552H83.6234C84.1028 40.8552 84.3418 40.5548 84.3418 40.1338V0.725269C84.3418 0.304651 84.1028 0.00380707 83.6234 0.00380707ZM90.4474 40.8552H91.5249C91.944 40.8552 92.2426 40.5548 92.2426 40.1338V21.6314H97.2712V40.1338C97.2712 40.5548 97.5708 40.8552 97.99 40.8552H99.0677C99.4859 40.8552 99.7855 40.5548 99.7855 40.1338V3.90836C99.7855 1.50618 98.2293 0.00380707 95.8345 0.00380707H93.6199C91.2255 0.00380707 89.7293 1.50618 89.7293 3.90836V40.1338C89.7293 40.5548 90.0279 40.8552 90.4474 40.8552ZM92.2426 19.228V4.02852C92.2426 2.94784 92.7817 2.40716 93.6802 2.40716H95.7752C96.7323 2.40716 97.2712 2.94784 97.2712 4.02852V19.228H92.2426ZM113.672 40.8552H118.761C121.215 40.8552 122.771 39.3529 122.771 36.8298V3.96898C122.771 1.44556 121.334 0.00380707 118.82 0.00380707H113.672C113.254 0.00380707 112.954 0.304651 112.954 0.725269V40.1338C112.954 40.5548 113.254 40.8552 113.672 40.8552ZM115.468 38.4522V2.40716H118.82C119.718 2.40716 120.317 2.88722 120.317 4.02852V36.7703C120.317 37.9112 119.778 38.4522 118.82 38.4522H115.468ZM128.876 40.8552H129.954C130.373 40.8552 130.672 40.5548 130.672 40.1338V0.725269C130.672 0.304651 130.373 0.00380707 129.954 0.00380707H128.876C128.458 0.00380707 128.158 0.304651 128.158 0.725269V40.1338C128.158 40.5548 128.458 40.8552 128.876 40.8552ZM151.861 11.5985H152.939C153.358 11.5985 153.657 11.2976 153.657 10.8771V3.90836C153.657 1.50618 152.041 0.00380707 149.647 0.00380707H147.851C145.456 0.00380707 143.84 1.50618 143.84 3.90836V10.8771C143.84 13.7616 144.259 15.9237 145.756 18.1462L149.108 22.5926C150.425 24.8748 151.143 27.158 151.143 29.9812V36.8298C151.143 37.9112 150.605 38.4522 149.707 38.4522H147.791C146.893 38.4522 146.354 37.9112 146.354 36.8298V29.9217C146.354 29.5008 146.055 29.2003 145.636 29.2003H144.559C144.14 29.2003 143.84 29.5008 143.84 29.9217V36.9507C143.84 39.3529 145.337 40.8552 147.731 40.8552H149.766C152.101 40.8552 153.657 39.3529 153.657 36.9507V29.741C153.657 26.257 152.819 23.5532 151.203 20.9702L147.731 16.2245C146.773 14.6021 146.354 12.8 146.354 10.6975V4.02852C146.354 2.94784 146.893 2.40716 147.791 2.40716H149.707C150.605 2.40716 151.143 2.94784 151.143 4.02852V10.8771C151.143 11.2976 151.442 11.5985 151.861 11.5985ZM159.763 40.8552H166.407C166.826 40.8552 167.126 40.5548 167.126 40.1338V39.1733C167.126 38.7527 166.826 38.5125 166.407 38.5125H162.217C161.798 38.5125 161.558 38.212 161.558 37.7911V22.1115C161.558 21.6909 161.798 21.4506 162.217 21.4506H166.228C166.646 21.4506 166.887 21.151 166.887 20.7304V19.7688C166.887 19.3481 166.646 19.0473 166.228 19.0473H162.217C161.798 19.0473 161.558 18.8075 161.558 18.327V3.068C161.558 2.64738 161.798 2.34654 162.217 2.34654H166.407C166.826 2.34654 167.126 2.10631 167.126 1.68579V0.725269C167.126 0.304651 166.826 0.00380707 166.407 0.00380707H159.763C159.344 0.00380707 159.044 0.304651 159.044 0.725269V40.1338C159.044 40.5548 159.344 40.8552 159.763 40.8552ZM174.966 40.8552H176.044C176.523 40.8552 176.763 40.5548 176.763 40.1338V2.34654H179.995C180.414 2.34654 180.653 2.10631 180.653 1.68579V0.725269C180.653 0.304651 180.414 0.00380707 179.995 0.00380707H171.016C170.597 0.00380707 170.358 0.304651 170.358 0.725269V1.68579C170.358 2.10631 170.597 2.34654 171.016 2.34654H174.308V40.1338C174.308 40.5548 174.548 40.8552 174.966 40.8552ZM187.537 40.8552H188.614C189.094 40.8552 189.333 40.5548 189.333 40.1338V2.34654H192.565C192.984 2.34654 193.224 2.10631 193.224 1.68579V0.725269C193.224 0.304651 192.984 0.00380707 192.565 0.00380707H183.587C183.167 0.00380707 182.928 0.304651 182.928 0.725269V1.68579C182.928 2.10631 183.167 2.34654 183.587 2.34654H186.878V40.1338C186.878 40.5548 187.118 40.8552 187.537 40.8552ZM197.174 40.8552H198.252C198.67 40.8552 198.97 40.5548 198.97 40.1338V21.6314H203.998V40.1338C203.998 40.5548 204.298 40.8552 204.716 40.8552H205.794C206.213 40.8552 206.513 40.5548 206.513 40.1338V3.90836C206.513 1.50618 204.956 0.00380707 202.562 0.00380707H200.347C197.952 0.00380707 196.456 1.50618 196.456 3.90836V40.1338C196.456 40.5548 196.755 40.8552 197.174 40.8552ZM198.97 19.228V4.02852C198.97 2.94784 199.509 2.40716 200.406 2.40716H202.501C203.46 2.40716 203.998 2.94784 203.998 4.02852V19.228H198.97ZM220.878 0.00380707H220.04C219.562 0.00380707 219.322 0.304651 219.322 0.725269V29.6208L214.653 0.604328C214.533 0.184588 214.234 0.00380707 213.815 0.00380707H212.618C212.199 0.00380707 211.899 0.304651 211.899 0.725269V40.1338C211.899 40.5548 212.199 40.8552 212.618 40.8552H213.516C213.935 40.8552 214.174 40.5548 214.174 40.1338V9.37591L219.203 40.2539C219.262 40.615 219.561 40.8552 219.981 40.8552H220.878C221.357 40.8552 221.597 40.5548 221.597 40.1338V0.725269C221.597 0.304651 221.357 0.00380707 220.878 0.00380707ZM230.636 40.8552H231.713C232.192 40.8552 232.431 40.5548 232.431 40.1338V2.34654H235.663C236.083 2.34654 236.322 2.10631 236.322 1.68579V0.725269C236.322 0.304651 236.083 0.00380707 235.663 0.00380707H226.685C226.266 0.00380707 226.027 0.304651 226.027 0.725269V1.68579C226.027 2.10631 226.266 2.34654 226.685 2.34654H229.977V40.1338C229.977 40.5548 230.217 40.8552 230.636 40.8552ZM240.273 40.8552H241.35C241.77 40.8552 242.068 40.5548 242.068 40.1338V21.6314H247.097V40.1338C247.097 40.5548 247.396 40.8552 247.816 40.8552H248.892C249.311 40.8552 249.611 40.5548 249.611 40.1338V3.90836C249.611 1.50618 248.055 0.00380707 245.66 0.00380707H243.446C241.051 0.00380707 239.554 1.50618 239.554 3.90836V40.1338C239.554 40.5548 239.854 40.8552 240.273 40.8552ZM242.068 19.228V4.02852C242.068 2.94784 242.607 2.40716 243.505 2.40716H245.6C246.558 2.40716 247.097 2.94784 247.097 4.02852V19.228H242.068ZM263.438 45C264.157 45 264.576 44.8204 265.055 44.4601C265.294 44.2797 265.413 44.0395 265.413 43.6792V42.7179C265.413 42.1768 265.174 42.1166 264.755 42.4777C264.456 42.7774 264.096 42.9577 263.618 42.9577C262.301 42.9577 261.284 41.4558 259.547 41.4558C258.889 41.4558 258.41 41.6361 257.872 41.937C257.572 42.1166 257.392 42.3576 257.392 42.7774V43.198C257.392 43.6792 257.752 43.7386 258.17 43.5583C258.47 43.4382 258.769 43.2586 259.189 43.2586C260.086 43.2586 261.582 45 263.438 45ZM254.998 36.9507C254.998 39.3529 256.494 40.8552 258.889 40.8552H260.924C263.259 40.8552 264.815 39.3529 264.815 36.9507V3.90836C264.815 1.50618 263.199 0.00380707 260.804 0.00380707H259.009C256.614 0.00380707 254.998 1.50618 254.998 3.90836V36.9507ZM257.512 36.8298V4.02852C257.512 2.94784 258.051 2.40716 258.948 2.40716H260.864C261.762 2.40716 262.301 2.94784 262.301 4.02852V36.8298C262.301 37.9112 261.762 38.4522 260.864 38.4522H258.948C258.051 38.4522 257.512 37.9112 257.512 36.8298ZM279.301 0.00380707H278.224C277.805 0.00380707 277.505 0.304651 277.505 0.725269V36.8298C277.505 37.9112 276.966 38.4522 276.069 38.4522H274.154C273.255 38.4522 272.717 37.9112 272.717 36.8298V0.725269C272.717 0.304651 272.417 0.00380707 271.998 0.00380707H270.92C270.501 0.00380707 270.203 0.304651 270.203 0.725269V36.9507C270.203 39.3529 271.699 40.8552 274.093 40.8552H276.129C278.463 40.8552 280.019 39.3529 280.019 36.9507V0.725269C280.019 0.304651 279.72 0.00380707 279.301 0.00380707ZM286.125 40.8552H287.202C287.622 40.8552 287.921 40.5548 287.921 40.1338V21.6314H292.949V40.1338C292.949 40.5548 293.248 40.8552 293.667 40.8552H294.745C295.163 40.8552 295.463 40.5548 295.463 40.1338V3.90836C295.463 1.50618 293.907 0.00380707 291.512 0.00380707H289.297C286.903 0.00380707 285.407 1.50618 285.407 3.90836V40.1338C285.407 40.5548 285.705 40.8552 286.125 40.8552ZM287.921 19.228V4.02852C287.921 2.94784 288.459 2.40716 289.358 2.40716H291.453C292.41 2.40716 292.949 2.94784 292.949 4.02852V19.228H287.921ZM304.502 40.8552H305.579C306.058 40.8552 306.297 40.5548 306.297 40.1338V2.34654H309.53C309.949 2.34654 310.189 2.10631 310.189 1.68579V0.725269C310.189 0.304651 309.949 0.00380707 309.53 0.00380707H300.551C300.132 0.00380707 299.892 0.304651 299.892 0.725269V1.68579C299.892 2.10631 300.132 2.34654 300.551 2.34654H303.843V40.1338C303.843 40.5548 304.082 40.8552 304.502 40.8552ZM318.269 40.8552H319.347C319.826 40.8552 320.065 40.5548 320.065 40.1338V2.34654H323.298C323.716 2.34654 323.956 2.10631 323.956 1.68579V0.725269C323.956 0.304651 323.716 0.00380707 323.298 0.00380707H314.318C313.899 0.00380707 313.66 0.304651 313.66 0.725269V1.68579C313.66 2.10631 313.899 2.34654 314.318 2.34654H317.611V40.1338C317.611 40.5548 317.85 40.8552 318.269 40.8552ZM338.322 34.1873L337.724 25.1756C337.664 23.4331 336.886 22.3516 336.047 21.6909C337.424 21.2104 338.202 20.0089 338.202 18.327V4.02852C338.202 1.50618 336.706 0.00380707 334.191 0.00380707H329.103C328.684 0.00380707 328.386 0.304651 328.386 0.725269V40.1338C328.386 40.5548 328.684 40.8552 329.103 40.8552H330.181C330.6 40.8552 330.9 40.5548 330.9 40.1338V22.532H333.413C334.252 23.0125 335.149 23.6733 335.269 26.1373L335.749 34.1267C335.927 36.7097 336.167 38.8122 337.125 40.3752C337.305 40.7351 337.544 40.8552 337.903 40.8552H339.22C339.759 40.8552 339.939 40.4953 339.639 40.0141C338.741 38.5125 338.502 36.7097 338.322 34.1873ZM330.9 20.2491V2.28709H334.191C335.09 2.28709 335.688 2.82777 335.688 3.90836V18.5672C335.688 19.6486 335.149 20.2491 334.132 20.2491H330.9ZM349.995 0.00380707H348.198C345.805 0.00380707 344.188 1.50618 344.188 3.90836V36.9507C344.188 39.3529 345.685 40.8552 348.079 40.8552H350.114C352.449 40.8552 354.005 39.3529 354.005 36.9507V3.90836C354.005 1.50618 352.389 0.00380707 349.995 0.00380707ZM346.702 36.8298V4.02852C346.702 2.94784 347.241 2.40716 348.139 2.40716H350.054C350.952 2.40716 351.491 2.94784 351.491 4.02852V36.8298C351.491 37.9112 350.952 38.4522 350.054 38.4522H348.139C347.241 38.4522 346.702 37.9112 346.702 36.8298Z" fill="#736F63"/>
</g>
<defs>
<clipPath id="clip0_668_370">
<rect width="354" height="45" fill="white"/>
</clipPath>
</defs>
</svg>
