<?xml version="1.0" encoding="UTF-8" standalone="no"?>
<!-- Created with Inkscape (http://www.inkscape.org/) -->

<svg
   version="1.1"
   id="svg2"
   width="485.28"
   height="61.466667"
   viewBox="0 0 485.28 61.466667"
   sodipodi:docname="Capanna Logo OK.eps"
   xmlns:inkscape="http://www.inkscape.org/namespaces/inkscape"
   xmlns:sodipodi="http://sodipodi.sourceforge.net/DTD/sodipodi-0.dtd"
   xmlns="http://www.w3.org/2000/svg"
   xmlns:svg="http://www.w3.org/2000/svg">
  <defs
     id="defs6" />
  <sodipodi:namedview
     id="namedview4"
     pagecolor="#ffffff"
     bordercolor="#000000"
     borderopacity="0.25"
     inkscape:showpageshadow="2"
     inkscape:pageopacity="0.0"
     inkscape:pagecheckerboard="0"
     inkscape:deskcolor="#d1d1d1" />
  <g
     id="g8"
     inkscape:groupmode="layer"
     inkscape:label="ink_ext_XXXXXX"
     transform="matrix(1.3333333,0,0,-1.3333333,0,61.466667)">
    <g
       id="g10"
       transform="scale(0.1)">
      <path
         d="m 82.4688,342.18 h 11.082 c 4.3086,0 7.3792,3.082 7.3792,7.39 v 71.391 c 0,24.609 -16.6097,40 -41.2308,40 H 41.2383 C 16.6211,460.961 0,445.57 0,420.961 V 82.4609 c 0,-24.6093 15.3906,-40 40,-40 h 20.9297 c 24,0 40.0003,15.3907 40.0003,40 v 72.0081 c 0,4.312 -3.0706,7.39 -7.3792,7.39 h -11.082 c -4.3086,0 -7.3907,-3.078 -7.3907,-7.39 V 83.6992 c 0,-11.0781 -5.5273,-16.6211 -14.7695,-16.6211 H 40.6211 c -9.2305,0 -14.7695,5.543 -14.7695,16.6211 V 419.73 c 0,11.071 5.539,16.61 14.7695,16.61 h 19.6875 c 9.2422,0 14.7695,-5.539 14.7695,-16.61 v -70.16 c 0,-4.308 3.0821,-7.39 7.3907,-7.39 M 158.172,42.4609 h 11.066 c 4.313,0 7.391,3.0782 7.391,7.3907 V 239.398 h 51.699 V 49.8516 c 0,-4.3125 3.07,-7.3907 7.383,-7.3907 h 11.078 c 4.313,0 7.391,3.0782 7.391,7.3907 V 420.961 c 0,24.609 -16.008,40 -40.621,40 h -22.778 c -24.609,0 -40,-15.391 -40,-40 V 49.8516 c 0,-4.3125 3.078,-7.3907 7.391,-7.3907 M 176.629,264.02 v 155.71 c 0,11.071 5.543,16.61 14.769,16.61 h 21.543 c 9.848,0 15.387,-5.539 15.387,-16.61 V 264.02 Z m 132.93,189.55 V 49.8516 c 0,-4.3125 3.082,-7.3907 7.39,-7.3907 h 11.082 c 4.297,0 7.379,3.0782 7.379,7.3907 V 230.172 h 33.852 c 25.226,0 41.226,15.387 41.226,40.617 V 419.73 c 0,25.84 -15.379,41.231 -41.226,41.231 h -52.313 c -4.308,0 -7.39,-3.082 -7.39,-7.391 M 335.41,254.172 v 182.789 h 33.852 c 9.226,0 15.386,-6.16 15.386,-17.231 V 271.398 c 0,-11.07 -6.16,-17.226 -15.386,-17.226 z M 460.961,42.4609 h 11.078 c 4.313,0 7.383,3.0782 7.383,7.3907 V 239.398 h 51.699 V 49.8516 c 0,-4.3125 3.078,-7.3907 7.391,-7.3907 h 11.066 c 4.313,0 7.391,3.0782 7.391,7.3907 V 420.961 c 0,24.609 -16,40 -40.617,40 h -22.774 c -24.617,0 -40.008,-15.391 -40.008,-40 V 49.8516 c 0,-4.3125 3.078,-7.3907 7.391,-7.3907 M 479.422,264.02 v 155.71 c 0,11.071 5.539,16.61 14.769,16.61 h 21.539 c 9.848,0 15.391,-5.539 15.391,-16.61 V 264.02 Z m 225.25,196.941 h -8.613 c -4.93,0 -7.387,-3.082 -7.387,-7.391 V 157.551 l -48,297.258 c -1.242,4.3 -4.313,6.152 -8.621,6.152 h -12.313 c -4.308,0 -7.379,-3.082 -7.379,-7.391 V 49.8516 c 0,-4.3125 3.071,-7.3907 7.379,-7.3907 h 9.231 c 4.312,0 6.769,3.0782 6.769,7.3907 V 364.949 L 687.441,48.6211 c 0.61,-3.6992 3.688,-6.1602 8,-6.1602 h 9.231 c 4.93,0 7.387,3.0782 7.387,7.3907 V 453.57 c 0,4.309 -2.457,7.391 -7.387,7.391 m 155.09,0 h -8.614 c -4.929,0 -7.386,-3.082 -7.386,-7.391 V 157.551 l -48,297.258 c -1.231,4.3 -4.313,6.152 -8.621,6.152 h -12.313 c -4.308,0 -7.379,-3.082 -7.379,-7.391 V 49.8516 c 0,-4.3125 3.071,-7.3907 7.379,-7.3907 h 9.231 c 4.312,0 6.769,3.0782 6.769,7.3907 V 364.949 L 842.531,48.6211 c 0.617,-3.6992 3.688,-6.1602 8,-6.1602 h 9.231 c 4.929,0 7.386,3.0782 7.386,7.3907 V 453.57 c 0,4.309 -2.457,7.391 -7.386,7.391 M 929.922,42.4609 H 941 c 4.309,0 7.379,3.0782 7.379,7.3907 V 239.398 h 51.701 V 49.8516 c 0,-4.3125 3.08,-7.3907 7.39,-7.3907 h 11.08 c 4.3,0 7.38,3.0782 7.38,7.3907 V 420.961 c 0,24.609 -16,40 -40.621,40 h -22.77 c -24.617,0 -40,-15.391 -40,-40 V 49.8516 c 0,-4.3125 3.07,-7.3907 7.383,-7.3907 M 948.379,264.02 v 155.71 c 0,11.071 5.543,16.61 14.781,16.61 h 21.539 c 9.84,0 15.381,-5.539 15.381,-16.61 V 264.02 Z M 1168.7,42.4609 h 52.32 c 25.23,0 41.23,15.3907 41.23,41.2383 V 420.34 c 0,25.851 -14.77,40.621 -40.62,40.621 h -52.93 c -4.3,0 -7.38,-3.082 -7.38,-7.391 V 49.8516 c 0,-4.3125 3.08,-7.3907 7.38,-7.3907 m 18.47,24.6172 V 436.34 h 34.46 c 9.23,0 15.39,-4.918 15.39,-16.61 V 84.3086 c 0,-11.6875 -5.54,-17.2305 -15.39,-17.2305 z m 137.85,-24.6172 h 11.08 c 4.31,0 7.39,3.0782 7.39,7.3907 V 453.57 c 0,4.309 -3.08,7.391 -7.39,7.391 h -11.08 c -4.3,0 -7.38,-3.082 -7.38,-7.391 V 49.8516 c 0,-4.3125 3.08,-7.3907 7.38,-7.3907 M 1561.34,342.18 h 11.08 c 4.31,0 7.38,3.082 7.38,7.39 v 71.391 c 0,24.609 -16.61,40 -41.23,40 h -18.46 c -24.62,0 -41.24,-15.391 -41.24,-40 V 349.57 c 0,-29.55 4.31,-51.699 19.7,-74.468 l 34.46,-45.551 c 13.54,-23.379 20.93,-46.77 20.93,-75.692 V 83.6992 c 0,-11.0781 -5.54,-16.6211 -14.77,-16.6211 h -19.7 c -9.23,0 -14.77,5.543 -14.77,16.6211 v 70.7698 c 0,4.312 -3.08,7.39 -7.38,7.39 h -11.08 c -4.31,0 -7.39,-3.078 -7.39,-7.39 V 82.4609 c 0,-24.6093 15.39,-40 40.01,-40 h 20.92 c 24,0 40,15.3907 40,40 V 156.32 c 0,35.692 -8.61,63.391 -25.23,89.852 l -35.69,48.617 c -9.85,16.621 -14.16,35.082 -14.16,56.621 v 68.32 c 0,11.071 5.54,16.61 14.77,16.61 h 19.7 c 9.23,0 14.77,-5.539 14.77,-16.61 v -70.16 c 0,-4.308 3.07,-7.39 7.38,-7.39 m 81.24,-299.7191 h 68.31 c 4.31,0 7.39,3.0782 7.39,7.3907 v 9.8398 c 0,4.3086 -3.08,6.7695 -7.39,6.7695 h -43.08 c -4.31,0 -6.77,3.0782 -6.77,7.3907 V 234.48 c 0,4.309 2.46,6.77 6.77,6.77 h 41.24 c 4.3,0 6.77,3.07 6.77,7.379 v 9.851 c 0,4.309 -2.47,7.391 -6.77,7.391 h -41.24 c -4.31,0 -6.77,2.457 -6.77,7.379 v 156.32 c 0,4.309 2.46,7.391 6.77,7.391 h 43.08 c 4.31,0 7.39,2.461 7.39,6.769 v 9.84 c 0,4.309 -3.08,7.391 -7.39,7.391 h -68.31 c -4.31,0 -7.39,-3.082 -7.39,-7.391 V 49.8516 c 0,-4.3125 3.08,-7.3907 7.39,-7.3907 m 156.31,0 h 11.08 c 4.93,0 7.39,3.0782 7.39,7.3907 V 436.961 h 33.23 c 4.31,0 6.77,2.461 6.77,6.769 v 9.84 c 0,4.309 -2.46,7.391 -6.77,7.391 h -92.31 c -4.31,0 -6.77,-3.082 -6.77,-7.391 v -9.84 c 0,-4.308 2.46,-6.769 6.77,-6.769 h 33.84 V 49.8516 c 0,-4.3125 2.47,-7.3907 6.77,-7.3907 m 129.24,0 h 11.08 c 4.93,0 7.39,3.0782 7.39,7.3907 V 436.961 h 33.23 c 4.31,0 6.77,2.461 6.77,6.769 v 9.84 c 0,4.309 -2.46,7.391 -6.77,7.391 h -92.31 c -4.31,0 -6.77,-3.082 -6.77,-7.391 v -9.84 c 0,-4.308 2.46,-6.769 6.77,-6.769 h 33.84 V 49.8516 c 0,-4.3125 2.47,-7.3907 6.77,-7.3907 m 99.09,0 h 11.08 c 4.3,0 7.38,3.0782 7.38,7.3907 V 239.398 h 51.7 V 49.8516 c 0,-4.3125 3.08,-7.3907 7.38,-7.3907 h 11.08 c 4.31,0 7.39,3.0782 7.39,7.3907 V 420.961 c 0,24.609 -16,40 -40.62,40 h -22.77 c -24.62,0 -40.01,-15.391 -40.01,-40 V 49.8516 c 0,-4.3125 3.08,-7.3907 7.39,-7.3907 m 18.46,221.5591 v 155.71 c 0,11.071 5.54,16.61 14.77,16.61 h 21.54 c 9.85,0 15.39,-5.539 15.39,-16.61 V 264.02 Z m 225.25,196.941 h -8.62 c -4.92,0 -7.38,-3.082 -7.38,-7.391 V 157.551 l -48.01,297.258 c -1.23,4.3 -4.3,6.152 -8.61,6.152 H 2186 c -4.31,0 -7.39,-3.082 -7.39,-7.391 V 49.8516 c 0,-4.3125 3.08,-7.3907 7.39,-7.3907 h 9.23 c 4.31,0 6.77,3.0782 6.77,7.3907 V 364.949 l 51.7,-316.3279 c 0.61,-3.6992 3.69,-6.1602 8,-6.1602 h 9.23 c 4.92,0 7.39,3.0782 7.39,7.3907 V 453.57 c 0,4.309 -2.47,7.391 -7.39,7.391 M 2371.25,42.4609 h 11.07 c 4.93,0 7.39,3.0782 7.39,7.3907 V 436.961 h 33.23 c 4.31,0 6.77,2.461 6.77,6.769 v 9.84 c 0,4.309 -2.46,7.391 -6.77,7.391 h -92.31 c -4.31,0 -6.77,-3.082 -6.77,-7.391 v -9.84 c 0,-4.308 2.46,-6.769 6.77,-6.769 h 33.85 V 49.8516 c 0,-4.3125 2.46,-7.3907 6.77,-7.3907 m 99.08,0 h 11.08 c 4.31,0 7.38,3.0782 7.38,7.3907 V 239.398 h 51.7 V 49.8516 c 0,-4.3125 3.08,-7.3907 7.39,-7.3907 h 11.07 c 4.31,0 7.39,3.0782 7.39,7.3907 V 420.961 c 0,24.609 -16,40 -40.62,40 h -22.77 c -24.62,0 -40.01,-15.391 -40.01,-40 V 49.8516 c 0,-4.3125 3.08,-7.3907 7.39,-7.3907 m 18.46,221.5591 v 155.71 c 0,11.071 5.54,16.61 14.77,16.61 h 21.54 c 9.85,0 15.39,-5.539 15.39,-16.61 V 264.02 Z M 2708.5,0 c 7.39,0 11.7,1.83984 16.62,5.53125 2.46,1.84766 3.69,4.30859 3.69,8.00005 v 9.8476 c 0,5.543 -2.46,6.1602 -6.77,2.4609 -3.07,-3.0703 -6.77,-4.9179 -11.69,-4.9179 -13.54,0 -24,15.3867 -41.85,15.3867 -6.77,0 -11.69,-1.8477 -17.23,-4.9297 -3.08,-1.8398 -4.93,-4.3086 -4.93,-8.6094 v -4.3086 c 0,-4.9296 3.7,-5.539 8,-3.6914 3.08,1.2305 6.16,3.0703 10.47,3.0703 9.23,0 24.61,-17.8398 43.69,-17.8398 m -86.77,82.4609 c 0,-24.6093 15.38,-40 40,-40 h 20.92 c 24.01,0 40.01,15.3907 40.01,40 V 420.961 c 0,24.609 -16.62,40 -41.24,40 h -18.46 c -24.62,0 -41.23,-15.391 -41.23,-40 z m 25.84,1.2383 V 419.73 c 0,11.071 5.54,16.61 14.77,16.61 h 19.7 c 9.23,0 14.77,-5.539 14.77,-16.61 V 83.6992 c 0,-11.0781 -5.54,-16.6211 -14.77,-16.6211 h -19.7 c -9.23,0 -14.77,5.543 -14.77,16.6211 m 224.02,377.2618 h -11.07 c -4.31,0 -7.39,-3.082 -7.39,-7.391 V 83.6992 c 0,-11.0781 -5.54,-16.6211 -14.77,-16.6211 h -19.69 c -9.24,0 -14.77,5.543 -14.77,16.6211 V 453.57 c 0,4.309 -3.08,7.391 -7.39,7.391 h -11.08 c -4.31,0 -7.38,-3.082 -7.38,-7.391 V 82.4609 c 0,-24.6093 15.38,-40 40,-40 h 20.93 c 24,0 40,15.3907 40,40 V 453.57 c 0,4.309 -3.08,7.391 -7.39,7.391 m 70.16,-418.5001 h 11.08 c 4.31,0 7.39,3.0782 7.39,7.3907 V 239.398 h 51.69 V 49.8516 c 0,-4.3125 3.08,-7.3907 7.39,-7.3907 h 11.08 c 4.3,0 7.38,3.0782 7.38,7.3907 V 420.961 c 0,24.609 -16,40 -40.62,40 h -22.77 c -24.62,0 -40,-15.391 -40,-40 V 49.8516 c 0,-4.3125 3.07,-7.3907 7.38,-7.3907 m 18.47,221.5591 v 155.71 c 0,11.071 5.53,16.61 14.77,16.61 h 21.54 c 9.84,0 15.38,-5.539 15.38,-16.61 V 264.02 Z M 3130.69,42.4609 h 11.08 c 4.92,0 7.38,3.0782 7.38,7.3907 V 436.961 h 33.24 c 4.31,0 6.77,2.461 6.77,6.769 v 9.84 c 0,4.309 -2.46,7.391 -6.77,7.391 h -92.32 c -4.31,0 -6.77,-3.082 -6.77,-7.391 v -9.84 c 0,-4.308 2.46,-6.769 6.77,-6.769 h 33.85 V 49.8516 c 0,-4.3125 2.46,-7.3907 6.77,-7.3907 m 141.55,0 h 11.08 c 4.92,0 7.38,3.0782 7.38,7.3907 V 436.961 h 33.24 c 4.3,0 6.77,2.461 6.77,6.769 v 9.84 c 0,4.309 -2.47,7.391 -6.77,7.391 h -92.32 c -4.31,0 -6.77,-3.082 -6.77,-7.391 v -9.84 c 0,-4.308 2.46,-6.769 6.77,-6.769 h 33.85 V 49.8516 c 0,-4.3125 2.46,-7.3907 6.77,-7.3907 m 206.17,68.3091 -6.15,92.32 c -0.62,17.851 -8.62,28.93 -17.24,35.699 14.16,4.922 22.16,17.231 22.16,34.461 v 146.48 c 0,25.84 -15.39,41.231 -41.24,41.231 h -52.31 c -4.31,0 -7.38,-3.082 -7.38,-7.391 V 49.8516 c 0,-4.3125 3.07,-7.3907 7.38,-7.3907 h 11.08 c 4.31,0 7.39,3.0782 7.39,7.3907 V 230.172 h 25.84 c 8.62,-4.922 17.85,-11.692 19.08,-36.934 l 4.93,-81.847 c 1.84,-26.4613 4.3,-48.0004 14.15,-64.0121 1.85,-3.6875 4.31,-4.918 8,-4.918 h 13.54 c 5.54,0 7.39,3.6875 4.31,8.6172 -9.23,15.3828 -11.69,33.8516 -13.54,59.6919 M 3402.1,253.559 V 437.57 h 33.84 c 9.24,0 15.39,-5.539 15.39,-16.609 V 270.789 c 0,-11.078 -5.54,-17.23 -16,-17.23 z m 196.32,207.402 h -18.47 c -24.61,0 -41.23,-15.391 -41.23,-40 V 82.4609 c 0,-24.6093 15.39,-40 40,-40 h 20.93 c 24,0 40,15.3907 40,40 V 420.961 c 0,24.609 -16.61,40 -41.23,40 M 3564.57,83.6992 V 419.73 c 0,11.071 5.54,16.61 14.77,16.61 h 19.69 c 9.23,0 14.77,-5.539 14.77,-16.61 V 83.6992 c 0,-11.0781 -5.54,-16.6211 -14.77,-16.6211 h -19.69 c -9.23,0 -14.77,5.543 -14.77,16.6211"
         style="fill:#ffffff;fill-opacity:1;fill-rule:nonzero;stroke:none"
         id="path12" />
    </g>
  </g>
</svg>
