<?xml version="1.0" encoding="UTF-8" standalone="no"?>
<!-- Created with Inkscape (http://www.inkscape.org/) -->

<svg
   version="1.1"
   id="svg2"
   width="324.92001"
   height="56.866669"
   viewBox="0 0 324.92001 56.866669"
   sodipodi:docname="Circolo logo SH.eps"
   xmlns:inkscape="http://www.inkscape.org/namespaces/inkscape"
   xmlns:sodipodi="http://sodipodi.sourceforge.net/DTD/sodipodi-0.dtd"
   xmlns="http://www.w3.org/2000/svg"
   xmlns:svg="http://www.w3.org/2000/svg">
  <defs
     id="defs6" />
  <sodipodi:namedview
     id="namedview4"
     pagecolor="#ffffff"
     bordercolor="#000000"
     borderopacity="0.25"
     inkscape:showpageshadow="2"
     inkscape:pageopacity="0.0"
     inkscape:pagecheckerboard="0"
     inkscape:deskcolor="#d1d1d1" />
  <g
     id="g8"
     inkscape:groupmode="layer"
     inkscape:label="ink_ext_XXXXXX"
     transform="matrix(1.3333333,0,0,-1.3333333,0,56.866667)">
    <g
       id="g10"
       transform="scale(0.1)">
      <path
         d="m 285.621,278.316 c -16.848,25.809 -46.016,45.457 -80.25,45.457 -53.32,0 -94.832,-42.656 -94.832,-97.632 0,-56.121 40.953,-97.633 94.832,-97.633 36.473,0 66.762,20.742 83.051,49.375 l 96.512,-56.68 C 349.582,61.1602 284.5,25.2461 205.371,25.2461 85.8516,25.2461 0,109.418 0,226.141 0,343.98 90.332,426.473 205.371,426.473 c 73.508,0 136.348,-31.993 172.82,-86.993 l -92.57,-61.164"
         style="fill:#231f20;fill-opacity:1;fill-rule:nonzero;stroke:none"
         id="path12" />
      <path
         d="M 407.473,35.9102 V 417.488 H 514.09 V 35.9102 H 407.473"
         style="fill:#231f20;fill-opacity:1;fill-rule:nonzero;stroke:none"
         id="path14" />
      <path
         d="m 713.324,203.691 c 39.856,0 67.344,25.25 67.344,61.723 0,37.031 -27.488,60.039 -67.344,60.039 H 665.629 V 203.691 Z M 922.641,104.379 V 0 L 665.629,109.977 V 35.9102 H 559.012 V 417.488 H 732.41 c 118.403,0 159.918,-67.906 159.918,-131.308 0,-59.481 -30.289,-111.098 -85.851,-134.106 l 116.164,-47.695"
         style="fill:#231f20;fill-opacity:1;fill-rule:nonzero;stroke:none"
         id="path16" />
      <path
         d="m 1211.71,278.316 c -16.85,25.809 -46.02,45.457 -80.25,45.457 -53.32,0 -94.83,-42.656 -94.83,-97.632 0,-56.121 40.95,-97.633 94.83,-97.633 36.47,0 66.76,20.742 83.05,49.375 l 96.51,-56.68 c -35.35,-60.0428 -100.43,-95.9569 -179.56,-95.9569 -119.52,0 -205.37,84.1719 -205.37,200.8949 0,117.839 90.33,200.332 205.37,200.332 73.51,0 136.35,-31.993 172.82,-86.993 l -92.57,-61.164"
         style="fill:#231f20;fill-opacity:1;fill-rule:nonzero;stroke:none"
         id="path18" />
      <path
         d="m 1615.82,226.141 c 0,54.976 -41.53,97.632 -95.95,97.632 -53.32,0 -94.83,-42.656 -94.83,-97.632 0,-56.121 40.95,-97.633 94.83,-97.633 54.98,0 95.95,41.512 95.95,97.633 z m -301.32,0 c 0,117.839 90.33,200.332 205.37,200.332 116.72,0 207.05,-84.172 207.05,-200.332 0,-116.723 -88.09,-200.8949 -207.05,-200.8949 -119.52,0 -205.37,84.1719 -205.37,200.8949"
         style="fill:#231f20;fill-opacity:1;fill-rule:nonzero;stroke:none"
         id="path20" />
      <path
         d="M 1764.07,35.9102 V 417.488 h 106.61 V 127.945 h 144.77 V 35.9102 h -251.38"
         style="fill:#231f20;fill-opacity:1;fill-rule:nonzero;stroke:none"
         id="path22" />
      <path
         d="m 2325.83,226.141 c 0,54.976 -41.53,97.632 -95.95,97.632 -53.32,0 -94.84,-42.656 -94.84,-97.632 0,-56.121 40.96,-97.633 94.84,-97.633 54.98,0 95.95,41.512 95.95,97.633 z m -301.32,0 c 0,117.839 90.33,200.332 205.37,200.332 116.72,0 207.05,-84.172 207.05,-200.332 0,-116.723 -88.09,-200.8949 -207.05,-200.8949 -119.52,0 -205.37,84.1719 -205.37,200.8949"
         style="fill:#231f20;fill-opacity:1;fill-rule:nonzero;stroke:none"
         id="path24" />
    </g>
  </g>
</svg>
