<svg width="92" height="17" viewBox="0 0 92 17" fill="none" xmlns="http://www.w3.org/2000/svg">
<path d="M10.7819 6.21678C10.1458 5.24243 9.04466 4.50068 7.75225 4.50068C5.7393 4.50068 4.17212 6.11104 4.17212 8.18651C4.17212 10.3052 5.71819 11.8724 7.75225 11.8724C9.12919 11.8724 10.2727 11.0893 10.8876 10.0084L14.5312 12.1482C13.1965 14.4149 10.7395 15.7708 7.75225 15.7708C3.24012 15.7708 -0.000976562 12.5931 -0.000976562 8.18651C-0.000976562 3.73782 3.40926 0.623518 7.75225 0.623518C10.5273 0.623518 12.8997 1.83133 14.2766 3.9077L10.7819 6.21678Z" fill="#757166"/>
<path d="M15.3818 15.3683V0.962848H19.4069V15.3683H15.3818Z" fill="#757166"/>
<path d="M26.9282 9.0342C28.4328 9.0342 29.4706 8.08095 29.4706 6.70401C29.4706 5.30601 28.4328 4.4374 26.9282 4.4374H25.1276V9.0342H26.9282ZM34.8304 12.7835V16.724L25.1276 12.5721V15.3683H21.1025V0.962869H27.6487C32.1187 0.962869 33.686 3.52648 33.686 5.92005C33.686 8.16559 32.5425 10.1143 30.4449 10.9829L34.8304 12.7835Z" fill="#757166"/>
<path d="M45.7437 6.21678C45.1076 5.24243 44.0064 4.50068 42.7141 4.50068C40.7012 4.50068 39.1341 6.11104 39.1341 8.18651C39.1341 10.3052 40.68 11.8724 42.7141 11.8724C44.0909 11.8724 45.2345 11.0893 45.8495 10.0084L49.4929 12.1482C48.1584 14.4149 45.7015 15.7708 42.7141 15.7708C38.202 15.7708 34.9609 12.5931 34.9609 8.18651C34.9609 3.73782 38.3711 0.623518 42.7141 0.623518C45.4893 0.623518 47.8616 1.83133 49.2385 3.9077L45.7437 6.21678Z" fill="#757166"/>
<path d="M60.9995 8.18651C60.9995 6.11104 59.4317 4.50068 57.3772 4.50068C55.3643 4.50068 53.7972 6.11104 53.7972 8.18651C53.7972 10.3052 55.3431 11.8724 57.3772 11.8724C59.4528 11.8724 60.9995 10.3052 60.9995 8.18651ZM49.624 8.18651C49.624 3.73782 53.0342 0.623518 57.3772 0.623518C61.7837 0.623518 65.1938 3.8012 65.1938 8.18651C65.1938 12.5931 61.8682 15.7708 57.3772 15.7708C52.8651 15.7708 49.624 12.5931 49.624 8.18651Z" fill="#757166"/>
<path d="M66.5967 15.3683V0.962848H70.6215V11.8938H76.0869V15.3683H66.5967Z" fill="#757166"/>
<path d="M87.8062 8.18651C87.8062 6.11104 86.2383 4.50068 84.1838 4.50068C82.1709 4.50068 80.6034 6.11104 80.6034 8.18651C80.6034 10.3052 82.1498 11.8724 84.1838 11.8724C86.2595 11.8724 87.8062 10.3052 87.8062 8.18651ZM76.4307 8.18651C76.4307 3.73782 79.8408 0.623518 84.1838 0.623518C88.5903 0.623518 92.0005 3.8012 92.0005 8.18651C92.0005 12.5931 88.6749 15.7708 84.1838 15.7708C79.6717 15.7708 76.4307 12.5931 76.4307 8.18651Z" fill="#757166"/>
</svg>
