<svg width="75" height="13" viewBox="0 0 75 13" fill="none" xmlns="http://www.w3.org/2000/svg">
<path d="M8.70644 4.51621C8.19287 3.72948 7.30376 3.13056 6.26022 3.13056C4.63489 3.13056 3.3695 4.43082 3.3695 6.10663C3.3695 7.81734 4.61785 9.08273 6.26022 9.08273C7.37201 9.08273 8.29529 8.45046 8.79182 7.57765L11.7337 9.3054C10.6561 11.1357 8.67227 12.2304 6.26022 12.2304C2.61697 12.2304 0 9.66464 0 6.10663C0 2.5146 2.75354 1.14624e-05 6.26022 1.14624e-05C8.50093 1.14624e-05 10.4164 0.975237 11.5282 2.65177L8.70644 4.51621Z" fill="#757166"/>
<path d="M12.4209 11.9053V0.27389H15.6709V11.9053H12.4209Z" fill="#757166"/>
<path d="M21.7448 6.79099C22.9597 6.79099 23.7976 6.02131 23.7976 4.90952C23.7976 3.78072 22.9597 3.07938 21.7448 3.07938H20.291V6.79099H21.7448ZM28.1253 9.81827V13L20.291 9.64763V11.9054H17.041V0.273924H22.3266C25.9358 0.273924 27.2013 2.34387 27.2013 4.27652C27.2013 6.08965 26.278 7.66306 24.5844 8.3644L28.1253 9.81827Z" fill="#757166"/>
<path d="M36.9359 4.51621C36.4223 3.72948 35.5331 3.13056 34.4897 3.13056C32.8644 3.13056 31.599 4.43082 31.599 6.10663C31.599 7.81734 32.8473 9.08273 34.4897 9.08273C35.6014 9.08273 36.5247 8.45046 37.0213 7.57765L39.9631 9.3054C38.8856 11.1357 36.9018 12.2304 34.4897 12.2304C30.8464 12.2304 28.2295 9.66464 28.2295 6.10663C28.2295 2.5146 30.983 1.14624e-05 34.4897 1.14624e-05C36.7304 1.14624e-05 38.646 0.975237 39.7577 2.65177L36.9359 4.51621Z" fill="#757166"/>
<path d="M49.2553 6.10663C49.2553 4.43082 47.9894 3.13056 46.3305 3.13056C44.7052 3.13056 43.4398 4.43082 43.4398 6.10663C43.4398 7.81734 44.6881 9.08273 46.3305 9.08273C48.0064 9.08273 49.2553 7.81734 49.2553 6.10663ZM40.0703 6.10663C40.0703 2.5146 42.8238 1.14624e-05 46.3305 1.14624e-05C49.8884 1.14624e-05 52.6419 2.56578 52.6419 6.10663C52.6419 9.66464 49.9567 12.2304 46.3305 12.2304C42.6872 12.2304 40.0703 9.66464 40.0703 6.10663Z" fill="#757166"/>
<path d="M53.7725 11.9053V0.27389H57.0222V9.09988H61.4352V11.9053H53.7725Z" fill="#757166"/>
<path d="M70.8969 6.10663C70.8969 4.43082 69.631 3.13056 67.9721 3.13056C66.3468 3.13056 65.0811 4.43082 65.0811 6.10663C65.0811 7.81734 66.3297 9.08273 67.9721 9.08273C69.648 9.08273 70.8969 7.81734 70.8969 6.10663ZM61.7119 6.10663C61.7119 2.5146 64.4654 1.14624e-05 67.9721 1.14624e-05C71.53 1.14624e-05 74.2835 2.56578 74.2835 6.10663C74.2835 9.66464 71.5983 12.2304 67.9721 12.2304C64.3288 12.2304 61.7119 9.66464 61.7119 6.10663Z" fill="#757166"/>
</svg>
