<svg width="27" height="26" viewBox="0 0 27 26" fill="none" xmlns="http://www.w3.org/2000/svg">
<path d="M19.75 5.85714H21.5357M8.14286 0.5H18.8571C20.7515 0.5 22.5684 1.25255 23.9079 2.59209C25.2475 3.93164 26 5.74845 26 7.64286V18.3571C26 20.2515 25.2475 22.0684 23.9079 23.4079C22.5684 24.7475 20.7515 25.5 18.8571 25.5H8.14286C6.24845 25.5 4.43164 24.7475 3.09209 23.4079C1.75255 22.0684 1 20.2515 1 18.3571V7.64286C1 5.74845 1.75255 3.93164 3.09209 2.59209C4.43164 1.25255 6.24845 0.5 8.14286 0.5ZM13.5 18.3571C12.0792 18.3571 10.7166 17.7927 9.71193 16.7881C8.70727 15.7834 8.14286 14.4208 8.14286 13C8.14286 11.5792 8.70727 10.2166 9.71193 9.21193C10.7166 8.20727 12.0792 7.64286 13.5 7.64286C14.9208 7.64286 16.2834 8.20727 17.2881 9.21193C18.2927 10.2166 18.8571 11.5792 18.8571 13C18.8571 14.4208 18.2927 15.7834 17.2881 16.7881C16.2834 17.7927 14.9208 18.3571 13.5 18.3571Z" stroke="#757166"/>
</svg>
