<svg width="60" height="13" viewBox="0 0 60 13" fill="none" xmlns="http://www.w3.org/2000/svg">
<path d="M0 3.56496C0 1.27972 1.55377 6.1223e-05 3.85713 6.1223e-05C4.8626 6.1223e-05 5.72197 0.365788 6.34341 0.950786C6.96504 0.383928 7.8059 6.1223e-05 8.73834 6.1223e-05C11.1879 6.1223e-05 12.5957 1.2433 12.5957 3.56496V12.5774H9.2501V3.94883C9.2501 3.36383 9.21375 2.85179 8.61045 2.85179C7.98873 2.85179 7.97052 3.36383 7.97052 3.94883V12.5774H4.62505V3.94883C4.62505 3.36383 4.58842 2.85179 3.98512 2.85179C3.36368 2.85179 3.34537 3.36383 3.34537 3.94883V12.5774H0V3.56496Z" fill="#757166"/>
<path d="M18.7559 7.69646V3.94883C18.7559 3.36383 18.7194 2.85179 18.1162 2.85179C17.4946 2.85179 17.4763 3.36383 17.4763 3.94883V7.69646H18.7559ZM14.1309 3.47342C14.1309 1.18836 15.8126 6.1223e-05 18.1162 6.1223e-05C20.5659 6.1223e-05 22.1014 1.15173 22.1014 3.47342V12.5774H18.7559V10.5299H17.4763V12.5774H14.1309V3.47342Z" fill="#757166"/>
<path d="M23.6367 3.47342C23.6367 1.18836 25.3183 6.1223e-05 27.6219 6.1223e-05C30.0717 6.1223e-05 31.607 1.15173 31.607 3.47342V12.5774H28.2617V3.94883C28.2617 3.36383 28.2251 2.85179 27.6219 2.85179C27.0003 2.85179 26.982 3.36383 26.982 3.94883V12.5774H23.6367V3.47342Z" fill="#757166"/>
<path d="M32.9043 9.0308V3.69295C32.9043 1.38931 34.7143 6.67572e-05 37.0176 6.67572e-05C39.3029 6.67572e-05 41.0213 1.38931 41.0213 3.69295V4.4972H37.7671V3.58327C37.7671 3.03472 37.3101 2.8518 37.0176 2.8518C36.6888 2.8518 36.2501 3.05302 36.2501 3.58327V9.14065C36.2501 9.65241 36.6888 9.87168 37.0176 9.87168C37.3101 9.87168 37.7671 9.65241 37.7671 9.14065V8.20823H36.963V5.68552H41.0213V9.0308C41.0213 11.3163 39.3029 12.7239 37.0176 12.7239C34.7143 12.7239 32.9043 11.3163 32.9043 9.0308Z" fill="#757166"/>
<path d="M42.5195 0.146352H45.8649V12.5774H42.5195V0.146352Z" fill="#757166"/>
<path d="M52.0988 7.69646V3.94883C52.0988 3.36383 52.0623 2.85179 51.459 2.85179C50.8375 2.85179 50.8192 3.36383 50.8192 3.94883V7.69646H52.0988ZM47.4736 3.47342C47.4736 1.18836 49.1554 6.1223e-05 51.459 6.1223e-05C53.9088 6.1223e-05 55.4441 1.15173 55.4441 3.47342V12.5774H52.0988V10.5299H50.8192V12.5774H47.4736V3.47342Z" fill="#757166"/>
<path d="M56.4131 11.0055C56.4131 10.0731 57.1626 9.28668 58.0768 9.28668C59.0274 9.28668 59.7952 10.0731 59.7952 11.0055C59.7952 11.9192 59.0274 12.6873 58.0768 12.6873C57.1626 12.6873 56.4131 11.9192 56.4131 11.0055Z" fill="#757166"/>
</svg>
