<svg width="88" height="19" viewBox="0 0 88 19" fill="none" xmlns="http://www.w3.org/2000/svg">
<path d="M0.480469 5.21791C0.480469 1.87306 2.75468 5.76973e-05 6.12605 5.76973e-05C7.59774 5.76973e-05 8.85558 0.535362 9.76516 1.39161C10.675 0.561913 11.9058 5.76973e-05 13.2706 5.76973e-05C16.8559 5.76973e-05 18.9165 1.81975 18.9165 5.21791V18.4092H14.0196V5.77977C14.0196 4.92352 13.9664 4.17406 13.0834 4.17406C12.1734 4.17406 12.1467 4.92352 12.1467 5.77977V18.4092H7.25004V5.77977C7.25004 4.92352 7.19642 4.17406 6.31338 4.17406C5.4038 4.17406 5.377 4.92352 5.377 5.77977V18.4092H0.480469V5.21791Z" fill="#757166"/>
<path d="M27.9326 11.2651V5.77977C27.9326 4.92352 27.8792 4.17406 26.9964 4.17406C26.0865 4.17406 26.0598 4.92352 26.0598 5.77977V11.2651H27.9326ZM21.1631 5.08392C21.1631 1.73934 23.6246 5.76973e-05 26.9964 5.76973e-05C30.5819 5.76973e-05 32.8293 1.68573 32.8293 5.08392V18.4092H27.9326V15.4123H26.0598V18.4092H21.1631V5.08392Z" fill="#757166"/>
<path d="M35.0771 5.08392C35.0771 1.73934 37.5384 5.76973e-05 40.9101 5.76973e-05C44.4958 5.76973e-05 46.743 1.68573 46.743 5.08392V18.4092H41.8466V5.77977C41.8466 4.92352 41.7931 4.17406 40.9101 4.17406C40.0004 4.17406 39.9736 4.92352 39.9736 5.77977V18.4092H35.0771V5.08392Z" fill="#757166"/>
<path d="M48.6416 13.2181V5.4052C48.6416 2.03342 51.2909 1.50198e-05 54.6622 1.50198e-05C58.0071 1.50198e-05 60.5222 2.03342 60.5222 5.4052V6.58236H55.7592V5.24466C55.7592 4.44176 55.0903 4.17402 54.6622 4.17402C54.1809 4.17402 53.5388 4.46855 53.5388 5.24466V13.3789C53.5388 14.1279 54.1809 14.4488 54.6622 14.4488C55.0903 14.4488 55.7592 14.1279 55.7592 13.3789V12.0141H54.5823V8.32168H60.5222V13.2181C60.5222 16.5633 58.0071 18.6235 54.6622 18.6235C51.2909 18.6235 48.6416 16.5633 48.6416 13.2181Z" fill="#757166"/>
<path d="M62.7148 0.214178H67.6113V18.4092H62.7148V0.214178Z" fill="#736F63"/>
<path d="M76.7375 11.2651V5.77977C76.7375 4.92352 76.684 4.17406 75.8011 4.17406C74.8913 4.17406 74.8646 4.92352 74.8646 5.77977V11.2651H76.7375ZM69.9678 5.08392C69.9678 1.73934 72.4294 5.76973e-05 75.8011 5.76973e-05C79.3868 5.76973e-05 81.634 1.68573 81.634 5.08392V18.4092H76.7375V15.4123H74.8646V18.4092H69.9678V5.08392Z" fill="#757166"/>
<path d="M83.0498 16.1084C83.0498 14.7437 84.1468 13.5926 85.485 13.5926C86.8763 13.5926 88.0001 14.7437 88.0001 16.1084C88.0001 17.4457 86.8763 18.5699 85.485 18.5699C84.1468 18.5699 83.0498 17.4457 83.0498 16.1084Z" fill="#757166"/>
</svg>
