<?xml version="1.0" encoding="UTF-8" standalone="no"?>
<!-- Created with Inkscape (http://www.inkscape.org/) -->

<svg
   version="1.1"
   id="svg2"
   width="340.18668"
   height="72.386665"
   viewBox="0 0 340.18668 72.386665"
   sodipodi:docname="Mangia_Logo.eps"
   xmlns:inkscape="http://www.inkscape.org/namespaces/inkscape"
   xmlns:sodipodi="http://sodipodi.sourceforge.net/DTD/sodipodi-0.dtd"
   xmlns="http://www.w3.org/2000/svg"
   xmlns:svg="http://www.w3.org/2000/svg">
  <defs
     id="defs6" />
  <sodipodi:namedview
     id="namedview4"
     pagecolor="#ffffff"
     bordercolor="#000000"
     borderopacity="0.25"
     inkscape:showpageshadow="2"
     inkscape:pageopacity="0.0"
     inkscape:pagecheckerboard="0"
     inkscape:deskcolor="#d1d1d1" />
  <g
     id="g8"
     inkscape:groupmode="layer"
     inkscape:label="ink_ext_XXXXXX"
     transform="matrix(1.3333333,0,0,-1.3333333,0,72.386667)">
    <g
       id="g10"
       transform="scale(0.1)">
      <path
         d="m 0,390.797 c 0,97.508 66.2969,152.109 164.578,152.109 42.902,0 79.57,-15.605 106.086,-40.566 26.524,24.187 62.402,40.566 102.188,40.566 104.519,0 164.589,-53.047 164.589,-152.109 V 6.25 H 394.688 v 368.168 c 0,24.961 -1.551,46.809 -27.293,46.809 -26.528,0 -27.305,-21.848 -27.305,-46.809 V 6.25 H 197.344 v 368.168 c 0,24.961 -1.563,46.809 -27.305,46.809 -26.516,0 -27.297,-21.848 -27.297,-46.809 l 0,-368.168 H 0 v 384.547"
         style="fill:#231f20;fill-opacity:1;fill-rule:nonzero;stroke:none"
         id="path12" />
      <path
         d="m 800.281,214.512 v 159.906 c 0,24.961 -1.558,46.809 -27.293,46.809 -26.523,0 -27.304,-21.848 -27.304,-46.809 V 214.512 Z M 602.938,394.703 c 0,97.5 71.757,148.203 170.05,148.203 104.524,0 170.039,-49.14 170.039,-148.203 V 6.25 H 800.281 V 93.6133 H 745.684 V 6.25 H 602.938 v 388.453"
         style="fill:#231f20;fill-opacity:1;fill-rule:nonzero;stroke:none"
         id="path14" />
      <path
         d="m 1008.53,394.703 c 0,97.5 71.75,148.203 170.04,148.203 104.53,0 170.04,-49.14 170.04,-148.203 V 6.25 h -142.74 v 368.168 c 0,24.961 -1.56,46.809 -27.3,46.809 -26.52,0 -27.3,-21.848 -27.3,-46.809 V 6.25 h -142.74 v 388.453"
         style="fill:#231f20;fill-opacity:1;fill-rule:nonzero;stroke:none"
         id="path16" />
      <path
         d="m 1403.98,157.578 v 227.758 c 0,98.293 77.23,157.57 175.51,157.57 97.51,0 170.83,-59.277 170.83,-157.57 V 351.02 h -138.85 v 38.996 c 0,23.406 -19.5,31.211 -31.98,31.211 -14.03,0 -32.75,-8.586 -32.75,-31.211 V 152.891 c 0,-21.836 18.72,-31.192 32.75,-31.192 12.48,0 31.98,9.356 31.98,31.192 v 39.785 h -34.31 v 107.64 h 173.16 V 157.578 C 1750.32,60.0586 1677,0 1579.49,0 1481.21,0 1403.98,60.0586 1403.98,157.578"
         style="fill:#231f20;fill-opacity:1;fill-rule:nonzero;stroke:none"
         id="path18" />
      <path
         d="M 1814.26,536.664 H 1957 V 6.25 h -142.74 v 530.414"
         style="fill:#231f20;fill-opacity:1;fill-rule:nonzero;stroke:none"
         id="path20" />
      <path
         d="m 2222.98,214.512 v 159.906 c 0,24.961 -1.56,46.809 -27.3,46.809 -26.52,0 -27.3,-21.848 -27.3,-46.809 V 214.512 Z m -197.35,180.191 c 0,97.5 71.76,148.203 170.05,148.203 104.53,0 170.04,-49.14 170.04,-148.203 V 6.25 h -142.74 v 87.3633 h -54.6 V 6.25 h -142.75 v 388.453"
         style="fill:#231f20;fill-opacity:1;fill-rule:nonzero;stroke:none"
         id="path22" />
      <path
         d="m 2407.05,73.3203 c 0,39.7847 31.98,73.3397 70.99,73.3397 40.56,0 73.32,-33.555 73.32,-73.3397 0,-38.9844 -32.76,-71.7578 -73.32,-71.7578 -39.01,0 -70.99,32.7734 -70.99,71.7578"
         style="fill:#231f20;fill-opacity:1;fill-rule:nonzero;stroke:none"
         id="path24" />
    </g>
  </g>
</svg>
