<svg width="43" height="41" viewBox="0 0 43 41" fill="none" xmlns="http://www.w3.org/2000/svg">
<g clip-path="url(#clip0_668_356)">
<path d="M11.2782 13.3854V13.8078C11.2782 14.3494 11.5802 14.7122 12.1827 14.7122H19.2391C19.7811 14.7122 20.0831 14.4103 20.0831 13.8078V13.3854C20.0831 12.8428 19.7811 12.4811 19.2391 12.4811H12.1827C11.6399 12.4811 11.2782 12.7819 11.2782 13.3854ZM0 40.2759C0 40.6984 0.302022 41 0.724241 41H1.62878C2.051 41 2.29215 40.6984 2.29215 40.2759V9.40619L7.35839 40.3965C7.41811 40.7589 7.72014 41 8.14235 41H9.04688C9.52882 41 9.76998 40.6984 9.76998 40.2759V0.724091C9.76998 0.301552 9.52882 3.8147e-06 9.04688 3.8147e-06H8.20206C7.72014 3.8147e-06 7.47897 0.301552 7.47897 0.724091V29.7248L2.77409 0.602318C2.65389 0.181442 2.35187 3.8147e-06 1.93041 3.8147e-06H0.724241C0.302022 3.8147e-06 0 0.301552 0 0.724091V40.2759ZM10.9766 4.64285C10.9766 7.41615 13.0873 9.46586 15.6811 9.46586C18.274 9.46586 20.4445 7.41615 20.4445 4.64285C20.4445 2.05049 18.274 3.8147e-06 15.6811 3.8147e-06C13.0873 3.8147e-06 10.9766 2.05049 10.9766 4.64285ZM11.2782 20.0779C11.2782 20.6205 11.5802 20.9822 12.1827 20.9822H19.2391C19.7811 20.9822 20.0831 20.6814 20.0831 20.0779V19.6554C20.0831 19.053 19.7811 18.7511 19.2391 18.7511H12.1827C11.6399 18.7511 11.2782 19.053 11.2782 19.6554V20.0779ZM13.0873 4.70251C13.0873 3.25551 14.2325 2.11016 15.6811 2.11016C17.1284 2.11016 18.274 3.25551 18.274 4.70251C18.274 6.21035 17.1284 7.35532 15.6811 7.35532C14.2325 7.35532 13.0873 6.21035 13.0873 4.70251ZM30.3959 3.8147e-06H21.7108C21.2893 3.8147e-06 20.9877 0.301552 20.9877 0.724091V1.68801C20.9877 2.11016 21.2893 2.4121 21.7108 2.4121H28.5264C25.8116 13.0839 22.7367 27.0716 22.6757 40.2759C22.6757 40.7589 22.9169 41 23.4 41H24.6663C25.0886 41 25.3906 40.7589 25.3906 40.2759C25.5107 27.5549 28.2244 13.5059 30.9984 2.59236C31.119 2.23075 31.119 1.98965 31.119 1.68801V0.724091C31.119 0.301552 30.8173 3.8147e-06 30.3959 3.8147e-06ZM39.0195 41H40.1054C40.5276 41 40.8285 40.6984 40.8285 40.2759V32.6187H42.2758C42.7589 32.6187 43.0001 32.4384 43.0001 31.9555V30.9915C43.0001 30.5693 42.7589 30.3282 42.2758 30.3282H40.8285V24.118C40.8285 23.6958 40.5276 23.4547 40.1054 23.4547H39.0195C38.5972 23.4547 38.2952 23.6958 38.2952 24.118V30.3282H34.0738C36.7273 20.6814 39.4416 10.612 39.8643 0.724091C39.8643 0.241104 39.5623 3.8147e-06 39.14 3.8147e-06H38.054C37.6319 3.8147e-06 37.3907 0.241104 37.3907 0.724091C36.9684 10.2504 34.3754 20.4392 31.7219 29.9659C31.6013 30.2674 31.6013 30.5085 31.6013 30.8101V31.9555C31.6013 32.3776 31.903 32.6187 32.3256 32.6187H38.2952V40.2759C38.2952 40.6984 38.5972 41 39.0195 41Z" fill="#605e5e"/>
</g>
<defs>
<clipPath id="clip0_668_356">
<rect width="43" height="41" fill="white"/>
</clipPath>
</defs>
</svg>
