<?xml version="1.0" encoding="UTF-8" standalone="no"?>
<!-- Created with Inkscape (http://www.inkscape.org/) -->

<svg
   version="1.1"
   id="svg2"
   width="58.506668"
   height="55.799999"
   viewBox="0 0 58.506668 55.799999"
   sodipodi:docname="N°74 (1).eps"
   xmlns:inkscape="http://www.inkscape.org/namespaces/inkscape"
   xmlns:sodipodi="http://sodipodi.sourceforge.net/DTD/sodipodi-0.dtd"
   xmlns="http://www.w3.org/2000/svg"
   xmlns:svg="http://www.w3.org/2000/svg">
  <defs
     id="defs6" />
  <sodipodi:namedview
     id="namedview4"
     pagecolor="#ffffff"
     bordercolor="#000000"
     borderopacity="0.25"
     inkscape:showpageshadow="2"
     inkscape:pageopacity="0.0"
     inkscape:pagecheckerboard="0"
     inkscape:deskcolor="#d1d1d1" />
  <g
     id="g8"
     inkscape:groupmode="layer"
     inkscape:label="ink_ext_XXXXXX"
     transform="matrix(1.3333333,0,0,-1.3333333,0,55.8)">
    <g
       id="g10"
       transform="scale(0.1)">
      <path
         d="m 115.09,281.871 v -4.312 c 0,-5.528 3.082,-9.231 9.23,-9.231 h 72.008 c 5.531,0 8.613,3.082 8.613,9.231 v 4.312 c 0,5.539 -3.082,9.231 -8.613,9.231 H 124.32 c -5.539,0 -9.23,-3.071 -9.23,-9.231 M 0,7.39063 C 0,3.07813 3.08203,0 7.39063,0 h 9.23047 c 4.3086,0 6.7695,3.07813 6.7695,7.39063 V 322.488 L 75.0898,6.16016 C 75.6992,2.46094 78.7813,0 83.0898,0 h 9.2305 c 4.918,0 7.3789,3.07813 7.3789,7.39063 V 411.109 c 0,4.313 -2.4609,7.391 -7.3789,7.391 h -8.6211 c -4.9179,0 -7.3789,-3.078 -7.3789,-7.391 V 115.09 L 28.3086,412.352 C 27.082,416.648 24,418.5 19.6992,418.5 H 7.39063 C 3.08203,418.5 0,415.422 0,411.109 Z M 112.012,371.109 c 0,-28.308 21.539,-49.23 48.008,-49.23 26.46,0 48.609,20.922 48.609,49.23 0,26.461 -22.149,47.391 -48.609,47.391 -26.469,0 -48.008,-20.93 -48.008,-47.391 m 3.078,-157.55 c 0,-5.539 3.082,-9.231 9.23,-9.231 h 72.008 c 5.531,0 8.613,3.07 8.613,9.231 v 4.312 c 0,6.149 -3.082,9.231 -8.613,9.231 H 124.32 c -5.539,0 -9.23,-3.082 -9.23,-9.231 z M 133.551,370.5 c 0,14.77 11.687,26.461 26.469,26.461 14.769,0 26.46,-11.691 26.46,-26.461 0,-15.391 -11.691,-27.078 -26.46,-27.078 -14.782,0 -26.469,11.687 -26.469,27.078 m 176.629,48 h -88.629 c -4.301,0 -7.379,-3.078 -7.379,-7.391 v -9.839 c 0,-4.309 3.078,-7.391 7.379,-7.391 h 69.551 C 263.398,284.949 232.02,142.172 231.398,7.39063 231.398,2.46094 233.859,0 238.789,0 h 12.922 c 4.309,0 7.391,2.46094 7.391,7.39063 1.226,129.84737 28.918,273.25037 57.226,384.64837 1.231,3.691 1.231,6.152 1.231,9.231 v 9.839 c 0,4.313 -3.079,7.391 -7.379,7.391 M 398.18,0 h 11.082 c 4.308,0 7.379,3.07813 7.379,7.39063 V 85.5508 h 14.769 c 4.93,0 7.391,1.8398 7.391,6.7695 v 9.8397 c 0,4.309 -2.461,6.77 -7.391,6.77 h -14.769 v 63.39 c 0,4.309 -3.071,6.77 -7.379,6.77 H 398.18 c -4.309,0 -7.391,-2.461 -7.391,-6.77 v -63.39 h -43.078 c 27.078,98.468 54.777,201.25 59.09,302.179 0,4.93 -3.082,7.391 -7.391,7.391 h -11.082 c -4.308,0 -6.769,-2.461 -6.769,-7.391 -4.309,-97.238 -30.77,-201.238 -57.848,-298.48 -1.231,-3.078 -1.231,-5.539 -1.231,-8.617 V 92.3203 c 0,-4.3086 3.079,-6.7695 7.391,-6.7695 h 60.918 V 7.39063 C 390.789,3.07813 393.871,0 398.18,0"
         style="fill:#231f20;fill-opacity:1;fill-rule:nonzero;stroke:none"
         id="path12" />
    </g>
  </g>
</svg>
