<svg width="60" height="60" viewBox="0 0 300 300" fill="none" xmlns="http://www.w3.org/2000/svg">
<path d="M56.9154 67.5665V69.6989C56.9154 72.4326 58.4395 74.2639 61.4799 74.2639H97.09C99.8252 74.2639 101.349 72.7397 101.349 69.6989V67.5665C101.349 64.8273 99.8252 63.0015 97.09 63.0015H61.4799C58.7407 63.0015 56.9154 64.5202 56.9154 67.5665ZM0 203.305C0 205.438 1.52415 206.96 3.65488 206.96H8.21962C10.3504 206.96 11.5673 205.438 11.5673 203.305V47.4802L37.1341 203.914C37.4355 205.743 38.9597 206.96 41.0904 206.96H45.6551C48.0872 206.96 49.3042 205.438 49.3042 203.305V3.65447C49.3042 1.52157 48.0872 -0.000591412 45.6551 -0.000591412H41.3917C38.9597 -0.000591412 37.7426 1.52157 37.7426 3.65447V150.045L13.9994 3.03978C13.3928 0.915282 11.8687 -0.000591412 9.74183 -0.000591412H3.65488C1.52415 -0.000591412 0 1.52157 0 3.65447V203.305ZM55.3932 23.4356C55.3932 37.4348 66.0449 47.7813 79.1346 47.7813C92.2198 47.7813 103.173 37.4348 103.173 23.4356C103.173 10.3499 92.2198 -0.000591412 79.1346 -0.000591412C66.0449 -0.000591412 55.3932 10.3499 55.3932 23.4356ZM56.9154 101.349C56.9154 104.088 58.4395 105.914 61.4799 105.914H97.09C99.8252 105.914 101.349 104.396 101.349 101.349V99.2163C101.349 96.1755 99.8252 94.6513 97.09 94.6513H61.4799C58.7407 94.6513 56.9154 96.1755 56.9154 99.2163V101.349ZM66.0449 23.7368C66.0449 16.4326 71.8245 10.6511 79.1346 10.6511C86.4383 10.6511 92.2198 16.4326 92.2198 23.7368C92.2198 31.3481 86.4383 37.1277 79.1346 37.1277C71.8245 37.1277 66.0449 31.3481 66.0449 23.7368ZM153.393 -0.000591412H109.563C107.437 -0.000591412 105.914 1.52157 105.914 3.65447V8.52016C105.914 10.6511 107.437 12.1752 109.563 12.1752H143.958C130.258 66.0443 114.741 136.652 114.433 203.305C114.433 205.743 115.65 206.96 118.088 206.96H124.478C126.609 206.96 128.134 205.743 128.134 203.305C128.74 139.092 142.434 68.1747 156.434 13.0852C157.042 11.2598 157.042 10.0428 157.042 8.52016V3.65447C157.042 1.52157 155.52 -0.000591412 153.393 -0.000591412ZM196.912 206.96H202.392C204.523 206.96 206.041 205.438 206.041 203.305V164.653H213.345C215.783 164.653 217 163.743 217 161.305V156.439C217 154.308 215.783 153.091 213.345 153.091H206.041V121.743C206.041 119.612 204.523 118.395 202.392 118.395H196.912C194.781 118.395 193.257 119.612 193.257 121.743V153.091H171.953C185.344 104.396 199.042 53.5668 201.175 3.65447C201.175 1.21644 199.651 -0.000591412 197.52 -0.000591412H192.04C189.909 -0.000591412 188.692 1.21644 188.692 3.65447C186.561 51.7415 173.475 103.173 160.085 151.262C159.476 152.784 159.476 154.001 159.476 155.523V161.305C159.476 163.436 160.999 164.653 163.131 164.653H193.257V203.305C193.257 205.438 194.781 206.96 196.912 206.96Z" fill="#F2F2F2"/>
</svg>
