<svg width="323" height="45" viewBox="0 0 323 45" fill="none" xmlns="http://www.w3.org/2000/svg">
<g filter="url(#filter0_b_511_2056)">
<path d="M6.32141 11.5957H7.17087C7.50114 11.5957 7.7365 11.2948 7.7365 10.8742V3.90487C7.7365 1.50249 6.46333 0 4.57607 0H3.16101C1.27404 0 0 1.50249 0 3.90487V36.95C0 39.3524 1.17972 40.8549 3.06609 40.8549H4.67039C6.51005 40.8549 7.7365 39.3524 7.7365 36.95V29.9204C7.7365 29.4995 7.50114 29.199 7.17087 29.199H6.32141C5.99115 29.199 5.7549 29.4995 5.7549 29.9204V36.8291C5.7549 37.9106 5.33122 38.4517 4.62279 38.4517H3.1137C2.40616 38.4517 1.98158 37.9106 1.98158 36.8291V4.02506C1.98158 2.94429 2.40616 2.40354 3.1137 2.40354H4.62279C5.33122 2.40354 5.7549 2.94429 5.7549 4.02506V10.8742C5.7549 11.2948 5.99115 11.5957 6.32141 11.5957ZM12.1242 40.8549H12.9725C13.3031 40.8549 13.539 40.5544 13.539 40.1334V21.6294H17.5018V40.1334C17.5018 40.5544 17.7372 40.8549 18.0678 40.8549H18.9169C19.2475 40.8549 19.4834 40.5544 19.4834 40.1334V3.90487C19.4834 1.50249 18.2564 0 16.3698 0H14.6238C12.7374 0 11.5577 1.50249 11.5577 3.90487V40.1334C11.5577 40.5544 11.7936 40.8549 12.1242 40.8549ZM13.539 19.2258V4.02506C13.539 2.94429 13.9639 2.40354 14.6711 2.40354H16.3224C17.0773 2.40354 17.5018 2.94429 17.5018 4.02506V19.2258H13.539ZM23.7284 0.721535V40.1334C23.7284 40.5544 23.9646 40.8549 24.2948 40.8549H25.1443C25.4737 40.8549 25.7099 40.5544 25.7099 40.1334V22.5301H28.3047C30.2384 22.5301 31.4648 21.028 31.4648 18.565V4.02506C31.4648 1.50251 30.286 0 28.3047 0H24.2948C23.9646 0 23.7284 0.30088 23.7284 0.721535ZM25.7099 20.1872V2.34294H28.3047C29.0119 2.34294 29.4841 2.94429 29.4841 4.02506V18.5055C29.4841 19.5862 29.0119 20.1872 28.3047 20.1872H25.7099ZM35.3337 40.8549H36.1828C36.5134 40.8549 36.7487 40.5544 36.7487 40.1334V21.6294H40.7116V40.1334C40.7116 40.5544 40.9475 40.8549 41.2781 40.8549H42.1264C42.457 40.8549 42.6929 40.5544 42.6929 40.1334V3.90487C42.6929 1.50249 41.4665 0 39.5795 0H37.8338C35.9469 0 34.7671 1.50249 34.7671 3.90487V40.1334C34.7671 40.5544 35.0031 40.8549 35.3337 40.8549ZM36.7487 19.2258V4.02506C36.7487 2.94429 37.1733 2.40354 37.8808 2.40354H39.5318C40.2867 2.40354 40.7116 2.94429 40.7116 4.02506V19.2258H36.7487ZM54.0146 0H53.3544C52.9765 0 52.7882 0.30088 52.7882 0.721535V29.6195L49.1089 0.600563C49.0137 0.180786 48.7783 0 48.4481 0H47.5043C47.174 0 46.9387 0.30088 46.9387 0.721535V40.1334C46.9387 40.5544 47.174 40.8549 47.5043 40.8549H48.2118C48.5424 40.8549 48.7307 40.5544 48.7307 40.1334V9.37289L52.6938 40.2535C52.7406 40.6146 52.9765 40.8549 53.3071 40.8549H54.0146C54.3925 40.8549 54.5809 40.5544 54.5809 40.1334V0.721535C54.5809 0.30088 54.3925 0 54.0146 0ZM65.9026 0H65.2423C64.8645 0 64.6762 0.30088 64.6762 0.721535V29.6195L60.9969 0.600563C60.9025 0.180786 60.6663 0 60.3361 0H59.3922C59.062 0 58.8266 0.30088 58.8266 0.721535V40.1334C58.8266 40.5544 59.062 40.8549 59.3922 40.8549H60.0998C60.4304 40.8549 60.6187 40.5544 60.6187 40.1334V9.37289L64.5818 40.2535C64.6291 40.6146 64.8645 40.8549 65.1951 40.8549H65.9026C66.2804 40.8549 66.4688 40.5544 66.4688 40.1334V0.721535C66.4688 0.30088 66.2804 0 65.9026 0ZM71.2805 40.8549H72.1297C72.46 40.8549 72.6953 40.5544 72.6953 40.1334V21.6294H76.6583V40.1334C76.6583 40.5544 76.8944 40.8549 77.2248 40.8549H78.0741C78.4037 40.8549 78.6398 40.5544 78.6398 40.1334V3.90487C78.6398 1.50249 77.4133 0 75.5261 0H73.7807C71.8938 0 70.7146 1.50249 70.7146 3.90487V40.1334C70.7146 40.5544 70.9499 40.8549 71.2805 40.8549ZM72.6953 19.2258V4.02506C72.6953 2.94429 73.1202 2.40354 73.8283 2.40354H75.4793C76.2336 2.40354 76.6583 2.94429 76.6583 4.02506V19.2258H72.6953ZM89.5834 40.8549H93.5938C95.5278 40.8549 96.7542 39.3524 96.7542 36.8291V3.96552C96.7542 1.44189 95.6221 0 93.6406 0H89.5834C89.2538 0 89.0177 0.30088 89.0177 0.721535V40.1334C89.0177 40.5544 89.2538 40.8549 89.5834 40.8549ZM90.9992 38.4517V2.40354H93.6406C94.3481 2.40354 94.8203 2.88366 94.8203 4.02506V36.7696C94.8203 37.9106 94.3956 38.4517 93.6406 38.4517H90.9992ZM101.566 40.8549H102.415C102.745 40.8549 102.981 40.5544 102.981 40.1334V0.721535C102.981 0.30088 102.745 0 102.415 0H101.566C101.236 0 101 0.30088 101 0.721535V40.1334C101 40.5544 101.236 40.8549 101.566 40.8549ZM119.68 11.5957H120.529C120.86 11.5957 121.095 11.2948 121.095 10.8742V3.90487C121.095 1.50249 119.822 0 117.935 0H116.52C114.633 0 113.359 1.50249 113.359 3.90487V10.8742C113.359 13.759 113.689 15.9212 114.869 18.144L117.51 22.5907C118.548 24.8731 119.114 27.1565 119.114 29.98V36.8291C119.114 37.9106 118.69 38.4517 117.982 38.4517H116.472C115.765 38.4517 115.34 37.9106 115.34 36.8291V29.9204C115.34 29.4995 115.104 29.199 114.774 29.199H113.925C113.595 29.199 113.359 29.4995 113.359 29.9204V36.95C113.359 39.3524 114.538 40.8549 116.425 40.8549H118.029C119.869 40.8549 121.095 39.3524 121.095 36.95V29.7397C121.095 26.2554 120.435 23.5513 119.161 20.9682L116.425 16.2221C115.67 14.5995 115.34 12.7973 115.34 10.6946V4.02506C115.34 2.94429 115.765 2.40354 116.472 2.40354H117.982C118.69 2.40354 119.114 2.94429 119.114 4.02506V10.8742C119.114 11.2948 119.35 11.5957 119.68 11.5957ZM125.907 40.8549H131.143C131.474 40.8549 131.71 40.5544 131.71 40.1334V39.1728C131.71 38.7522 131.474 38.512 131.143 38.512H127.841C127.511 38.512 127.322 38.2115 127.322 37.7905V22.1096C127.322 21.6889 127.511 21.4487 127.841 21.4487H131.002C131.332 21.4487 131.521 21.149 131.521 20.7283V19.7666C131.521 19.346 131.332 19.0451 131.002 19.0451H127.841C127.511 19.0451 127.322 18.8053 127.322 18.3248V3.06445C127.322 2.6438 127.511 2.34294 127.841 2.34294H131.143C131.474 2.34294 131.71 2.10268 131.71 1.68212V0.721535C131.71 0.30088 131.474 0 131.143 0H125.907C125.577 0 125.341 0.30088 125.341 0.721535V40.1334C125.341 40.5544 125.577 40.8549 125.907 40.8549ZM137.889 40.8549H138.738C139.116 40.8549 139.305 40.5544 139.305 40.1334V2.34294H141.852C142.182 2.34294 142.371 2.10268 142.371 1.68212V0.721535C142.371 0.30088 142.182 0 141.852 0H134.776C134.446 0 134.257 0.30088 134.257 0.721535V1.68212C134.257 2.10268 134.446 2.34294 134.776 2.34294H137.37V40.1334C137.37 40.5544 137.559 40.8549 137.889 40.8549ZM147.795 40.8549H148.645C149.023 40.8549 149.211 40.5544 149.211 40.1334V2.34294H151.758C152.089 2.34294 152.277 2.10268 152.277 1.68212V0.721535C152.277 0.30088 152.089 0 151.758 0H144.683C144.352 0 144.164 0.30088 144.164 0.721535V1.68212C144.164 2.10268 144.352 2.34294 144.683 2.34294H147.276V40.1334C147.276 40.5544 147.466 40.8549 147.795 40.8549ZM155.391 40.8549H156.24C156.57 40.8549 156.806 40.5544 156.806 40.1334V21.6294H160.769V40.1334C160.769 40.5544 161.005 40.8549 161.334 40.8549H162.184C162.514 40.8549 162.75 40.5544 162.75 40.1334V3.90487C162.75 1.50249 161.524 0 159.637 0H157.891C156.004 0 154.824 1.50249 154.824 3.90487V40.1334C154.824 40.5544 155.06 40.8549 155.391 40.8549ZM156.806 19.2258V4.02506C156.806 2.94429 157.23 2.40354 157.938 2.40354H159.589C160.344 2.40354 160.769 2.94429 160.769 4.02506V19.2258H156.806ZM174.072 0H173.411C173.034 0 172.845 0.30088 172.845 0.721535V29.6195L169.165 0.600563C169.071 0.180786 168.836 0 168.505 0H167.562C167.231 0 166.995 0.30088 166.995 0.721535V40.1334C166.995 40.5544 167.231 40.8549 167.562 40.8549H168.269C168.6 40.8549 168.788 40.5544 168.788 40.1334V9.37289L172.751 40.2535C172.798 40.6146 173.034 40.8549 173.364 40.8549H174.072C174.449 40.8549 174.638 40.5544 174.638 40.1334V0.721535C174.638 0.30088 174.449 0 174.072 0ZM181.761 40.8549H182.61C182.988 40.8549 183.176 40.5544 183.176 40.1334V2.34294H185.724C186.054 2.34294 186.243 2.10268 186.243 1.68212V0.721535C186.243 0.30088 186.054 0 185.724 0H178.648C178.317 0 178.129 0.30088 178.129 0.721535V1.68212C178.129 2.10268 178.317 2.34294 178.648 2.34294H181.243V40.1334C181.243 40.5544 181.431 40.8549 181.761 40.8549ZM189.356 40.8549H190.205C190.536 40.8549 190.771 40.5544 190.771 40.1334V21.6294H194.734V40.1334C194.734 40.5544 194.97 40.8549 195.301 40.8549H196.149C196.479 40.8549 196.716 40.5544 196.716 40.1334V3.90487C196.716 1.50249 195.489 0 193.602 0H191.857C189.969 0 188.79 1.50249 188.79 3.90487V40.1334C188.79 40.5544 189.026 40.8549 189.356 40.8549ZM190.771 19.2258V4.02506C190.771 2.94429 191.196 2.40354 191.903 2.40354H193.554C194.309 2.40354 194.734 2.94429 194.734 4.02506V19.2258H190.771ZM207.612 45C208.179 45 208.509 44.8204 208.886 44.46C209.075 44.2797 209.169 44.0394 209.169 43.6791V42.7177C209.169 42.1766 208.981 42.1163 208.65 42.4775C208.415 42.7772 208.131 42.9576 207.754 42.9576C206.716 42.9576 205.915 41.4555 204.546 41.4555C204.027 41.4555 203.65 41.6359 203.226 41.9367C202.99 42.1163 202.848 42.3573 202.848 42.7772V43.1978C202.848 43.6791 203.131 43.7386 203.461 43.5582C203.697 43.4381 203.933 43.2584 204.263 43.2584C204.971 43.2584 206.15 45 207.612 45ZM200.961 36.95C200.961 39.3524 202.14 40.8549 204.027 40.8549H205.631C207.471 40.8549 208.698 39.3524 208.698 36.95V3.90487C208.698 1.50249 207.424 0 205.537 0H204.122C202.234 0 200.961 1.50249 200.961 3.90487V36.95ZM202.942 36.8291V4.02506C202.942 2.94429 203.367 2.40354 204.074 2.40354H205.584C206.292 2.40354 206.716 2.94429 206.716 4.02506V36.8291C206.716 37.9106 206.292 38.4517 205.584 38.4517H204.074C203.367 38.4517 202.942 37.9106 202.942 36.8291ZM220.114 0H219.265C218.935 0 218.699 0.30088 218.699 0.721535V36.8291C218.699 37.9106 218.274 38.4517 217.566 38.4517H216.057C215.349 38.4517 214.925 37.9106 214.925 36.8291V0.721535C214.925 0.30088 214.689 0 214.359 0H213.509C213.179 0 212.944 0.30088 212.944 0.721535V36.95C212.944 39.3524 214.122 40.8549 216.01 40.8549H217.614C219.454 40.8549 220.68 39.3524 220.68 36.95V0.721535C220.68 0.30088 220.444 0 220.114 0ZM225.492 40.8549H226.341C226.671 40.8549 226.907 40.5544 226.907 40.1334V21.6294H230.869V40.1334C230.869 40.5544 231.106 40.8549 231.436 40.8549H232.285C232.615 40.8549 232.851 40.5544 232.851 40.1334V3.90487C232.851 1.50249 231.624 0 229.737 0H227.992C226.105 0 224.926 1.50249 224.926 3.90487V40.1334C224.926 40.5544 225.161 40.8549 225.492 40.8549ZM226.907 19.2258V4.02506C226.907 2.94429 227.331 2.40354 228.039 2.40354H229.691C230.445 2.40354 230.869 2.94429 230.869 4.02506V19.2258H226.907ZM239.974 40.8549H240.824C241.201 40.8549 241.389 40.5544 241.389 40.1334V2.34294H243.937C244.267 2.34294 244.456 2.10268 244.456 1.68212V0.721535C244.456 0.30088 244.267 0 243.937 0H236.861C236.53 0 236.342 0.30088 236.342 0.721535V1.68212C236.342 2.10268 236.53 2.34294 236.861 2.34294H239.455V40.1334C239.455 40.5544 239.644 40.8549 239.974 40.8549ZM250.824 40.8549H251.674C252.051 40.8549 252.239 40.5544 252.239 40.1334V2.34294H254.787C255.117 2.34294 255.306 2.10268 255.306 1.68212V0.721535C255.306 0.30088 255.117 0 254.787 0H247.711C247.38 0 247.192 0.30088 247.192 0.721535V1.68212C247.192 2.10268 247.38 2.34294 247.711 2.34294H250.305V40.1334C250.305 40.5544 250.494 40.8549 250.824 40.8549ZM266.628 34.1864L266.156 25.1739C266.109 23.4313 265.496 22.3497 264.835 21.6889C265.92 21.2084 266.533 20.0068 266.533 18.3248V4.02506C266.533 1.50251 265.354 0 263.372 0H259.363C259.032 0 258.797 0.30088 258.797 0.721535V40.1334C258.797 40.5544 259.032 40.8549 259.363 40.8549H260.212C260.542 40.8549 260.778 40.5544 260.778 40.1334V22.5301H262.759C263.42 23.0106 264.127 23.6715 264.222 26.1357L264.599 34.1258C264.741 36.709 264.929 38.8117 265.684 40.3748C265.826 40.7348 266.014 40.8549 266.297 40.8549H267.335C267.76 40.8549 267.902 40.4949 267.666 40.0137C266.958 38.512 266.77 36.709 266.628 34.1864ZM260.778 20.247V2.28347H263.372C264.081 2.28347 264.552 2.8242 264.552 3.90487V18.565C264.552 19.6465 264.127 20.247 263.326 20.247H260.778ZM275.827 0H274.411C272.525 0 271.251 1.50249 271.251 3.90487V36.95C271.251 39.3524 272.43 40.8549 274.317 40.8549H275.921C277.761 40.8549 278.987 39.3524 278.987 36.95V3.90487C278.987 1.50249 277.714 0 275.827 0ZM273.232 36.8291V4.02506C273.232 2.94429 273.657 2.40354 274.364 2.40354H275.873C276.581 2.40354 277.006 2.94429 277.006 4.02506V36.8291C277.006 37.9106 276.581 38.4517 275.873 38.4517H274.364C273.657 38.4517 273.232 37.9106 273.232 36.8291ZM298.187 13.3384V13.759C298.187 14.299 298.423 14.6601 298.894 14.6601H304.414C304.838 14.6601 305.074 14.3592 305.074 13.759V13.3384C305.074 12.7973 304.838 12.4373 304.414 12.4373H298.894C298.47 12.4373 298.187 12.737 298.187 13.3384ZM289.365 40.1334C289.365 40.5544 289.601 40.8549 289.931 40.8549H290.639C290.969 40.8549 291.158 40.5544 291.158 40.1334V9.37289L295.121 40.2535C295.168 40.6146 295.404 40.8549 295.734 40.8549H296.442C296.819 40.8549 297.007 40.5544 297.007 40.1334V0.721535C297.007 0.30088 296.819 0 296.442 0H295.781C295.404 0 295.215 0.30088 295.215 0.721535V29.6195L291.535 0.600563C291.441 0.180786 291.205 0 290.875 0H289.931C289.601 0 289.365 0.30088 289.365 0.721535V40.1334ZM297.951 4.62641C297.951 7.3899 299.602 9.43236 301.631 9.43236C303.659 9.43236 305.357 7.3899 305.357 4.62641C305.357 2.04323 303.659 0 301.631 0C299.602 0 297.951 2.04323 297.951 4.62641ZM298.187 20.0068C298.187 20.5476 298.423 20.9079 298.894 20.9079H304.414C304.838 20.9079 305.074 20.6082 305.074 20.0068V19.5862C305.074 18.9857 304.838 18.6851 304.414 18.6851H298.894C298.47 18.6851 298.187 18.9857 298.187 19.5862V20.0068ZM299.602 4.68586C299.602 3.24408 300.498 2.10268 301.631 2.10268C302.763 2.10268 303.659 3.24408 303.659 4.68586C303.659 6.18837 302.763 7.32966 301.631 7.32966C300.498 7.32966 299.602 6.18837 299.602 4.68586ZM313.141 0H306.347C306.018 0 305.782 0.30088 305.782 0.721535V1.68212C305.782 2.10268 306.018 2.40354 306.347 2.40354H311.679C309.555 13.0375 307.15 26.9761 307.102 40.1334C307.102 40.6146 307.291 40.8549 307.669 40.8549H308.659C308.99 40.8549 309.226 40.6146 309.226 40.1334C309.32 27.4574 311.442 13.4581 313.612 2.58319C313.707 2.22286 313.707 1.98299 313.707 1.68212V0.721535C313.707 0.30088 313.471 0 313.141 0ZM319.886 40.8549H320.736C321.066 40.8549 321.301 40.5544 321.301 40.1334V32.5032H322.434C322.811 32.5032 323 32.3236 323 31.8424V30.8818C323 30.4611 322.811 30.2209 322.434 30.2209H321.301V24.0326C321.301 23.612 321.066 23.3717 320.736 23.3717H319.886C319.556 23.3717 319.32 23.612 319.32 24.0326V30.2209H316.018C318.093 20.6082 320.217 10.5744 320.547 0.721535C320.547 0.240257 320.311 0 319.981 0H319.131C318.801 0 318.612 0.240257 318.612 0.721535C318.282 10.2145 316.254 20.3672 314.178 29.8598C314.084 30.1603 314.084 30.4005 314.084 30.7014V31.8424C314.084 32.2634 314.32 32.5032 314.65 32.5032H319.32V40.1334C319.32 40.5544 319.556 40.8549 319.886 40.8549Z" fill="#E85835"/>
</g>
<defs>
<filter id="filter0_b_511_2056" x="-35.2645" y="-35.2645" width="393.529" height="115.529" filterUnits="userSpaceOnUse" color-interpolation-filters="sRGB">
<feFlood flood-opacity="0" result="BackgroundImageFix"/>
<feGaussianBlur in="BackgroundImageFix" stdDeviation="17.6322"/>
<feComposite in2="SourceAlpha" operator="in" result="effect1_backgroundBlur_511_2056"/>
<feBlend mode="normal" in="SourceGraphic" in2="effect1_backgroundBlur_511_2056" result="shape"/>
</filter>
</defs>
</svg>
